<svg xmlns="http://www.w3.org/2000/svg" viewBox="0 0 26 26"><title>close-button-1</title><path d="M13.5,27.25a13,13,0,1,1,13-13A13,13,0,0,1,13.5,27.25Zm0-24a11,11,0,1,0,11,11A11,11,0,0,0,13.5,3.25Z" transform="translate(-0.5 -1.25)"/><path d="M18.5,20.25a1,1,0,0,1-.71-.29l-10-10A1,1,0,1,1,9.21,8.54l10,10a1,1,0,0,1,0,1.42A1,1,0,0,1,18.5,20.25Z" transform="translate(-0.5 -1.25)"/><path d="M8.5,20.25A1,1,0,0,1,7.79,20a1,1,0,0,1,0-1.42l10-10A1,1,0,0,1,19.21,10l-10,10A1,1,0,0,1,8.5,20.25Z" transform="translate(-0.5 -1.25)"/></svg>