<?xml version="1.0" encoding="utf-8"?>
<!-- Generator: Adobe Illustrator 24.0.3, SVG Export Plug-In . SVG Version: 6.00 Build 0)  -->
<svg version="1.1" id="Layer_1" xmlns="http://www.w3.org/2000/svg" xmlns:xlink="http://www.w3.org/1999/xlink" x="0px" y="0px"
	 viewBox="0 0 300 95.14" style="enable-background:new 0 0 300 95.14;" xml:space="preserve">
<style type="text/css">
	.st0{fill:#CCCCCC;}
</style>
<g>
	<g>
		<path class="st0" d="M174.34,53.98v10.65c0,0.63-0.23,1.18-0.67,1.62c-0.44,0.44-0.99,0.67-1.62,0.67h-44.12
			c-0.63,0-1.18-0.23-1.62-0.67c-0.44-0.44-0.67-0.99-0.67-1.62V53.98c0-0.63,0.23-1.18,0.67-1.62c0.44-0.44,0.98-0.67,1.62-0.67
			h12.93v0.76c0,1.46,0.53,2.71,1.57,3.75c1.04,1.04,2.3,1.57,3.75,1.57h7.61c1.46,0,2.71-0.53,3.75-1.57
			c1.04-1.04,1.57-2.3,1.57-3.75V51.7h12.93c0.63,0,1.18,0.23,1.62,0.67C174.12,52.81,174.34,53.34,174.34,53.98z M153.8,54.74
			h-7.61c-0.63,0-1.18-0.23-1.62-0.67c-0.44-0.44-0.67-0.98-0.67-1.62V36.49h-8.37c-0.83,0-1.39-0.4-1.71-1.19
			c-0.32-0.79-0.19-1.48,0.38-2.04l14.46-14.46c0.38-0.38,0.83-0.57,1.34-0.57s0.95,0.19,1.34,0.57l14.46,14.46
			c0.57,0.57,0.7,1.25,0.38,2.04c-0.32,0.79-0.88,1.19-1.71,1.19h-8.37v15.97c0,0.63-0.23,1.18-0.67,1.62
			C154.98,54.52,154.44,54.74,153.8,54.74z M161.98,63.68c0.38-0.38,0.57-0.83,0.57-1.34s-0.19-0.95-0.57-1.34
			c-0.38-0.38-0.83-0.57-1.34-0.57s-0.95,0.19-1.34,0.57c-0.38,0.38-0.57,0.83-0.57,1.34s0.19,0.95,0.57,1.34
			c0.38,0.38,0.83,0.57,1.34,0.57C161.16,64.24,161.6,64.06,161.98,63.68z M168.07,63.68c0.38-0.38,0.57-0.83,0.57-1.34
			s-0.19-0.95-0.57-1.34c-0.38-0.38-0.83-0.57-1.34-0.57s-0.95,0.19-1.34,0.57c-0.38,0.38-0.57,0.83-0.57,1.34s0.19,0.95,0.57,1.34
			c0.38,0.38,0.83,0.57,1.34,0.57C167.24,64.24,167.68,64.06,168.07,63.68z"/>
	</g>
	<g>
		<path class="st0" d="M112.75,73.25c-0.1-0.43-0.28-0.72-0.54-0.9c-0.26-0.18-0.6-0.27-1.03-0.27c-0.3,0-0.56,0.06-0.77,0.18
			c-0.21,0.12-0.4,0.28-0.53,0.48c-0.14,0.2-0.24,0.44-0.31,0.7c-0.07,0.26-0.1,0.55-0.1,0.84c0,0.28,0.03,0.55,0.09,0.82
			c0.06,0.26,0.16,0.51,0.29,0.71c0.13,0.21,0.31,0.38,0.54,0.51c0.22,0.13,0.51,0.2,0.85,0.2c0.21,0,0.4-0.03,0.58-0.1
			c0.17-0.07,0.33-0.17,0.46-0.29c0.13-0.12,0.24-0.26,0.33-0.43s0.16-0.34,0.2-0.55h0.49c-0.06,0.24-0.14,0.47-0.24,0.68
			c-0.1,0.21-0.25,0.4-0.42,0.56s-0.38,0.29-0.63,0.38c-0.25,0.09-0.53,0.14-0.87,0.14c-0.38,0-0.71-0.07-0.98-0.21
			c-0.27-0.14-0.49-0.33-0.67-0.57s-0.3-0.52-0.37-0.83c-0.08-0.32-0.11-0.65-0.11-1.01c0-0.47,0.06-0.87,0.18-1.21
			c0.11-0.33,0.28-0.6,0.49-0.81s0.45-0.36,0.73-0.45c0.28-0.09,0.59-0.14,0.92-0.14c0.25,0,0.49,0.03,0.71,0.1
			c0.22,0.07,0.41,0.17,0.58,0.3c0.17,0.13,0.3,0.3,0.41,0.49c0.11,0.2,0.18,0.42,0.22,0.68L112.75,73.25L112.75,73.25z"/>
		<path class="st0" d="M114.28,76.77v-4.96h0.47v4.56h2.66v0.4H114.28z"/>
		<path class="st0" d="M118.35,76.77v-4.96h0.47v4.96H118.35z"/>
		<path class="st0" d="M123.69,73.25c-0.1-0.43-0.28-0.72-0.54-0.9c-0.26-0.18-0.6-0.27-1.03-0.27c-0.3,0-0.56,0.06-0.77,0.18
			c-0.22,0.12-0.4,0.28-0.53,0.48s-0.24,0.44-0.31,0.7c-0.07,0.26-0.1,0.55-0.1,0.84c0,0.28,0.03,0.55,0.09,0.82
			c0.06,0.26,0.16,0.51,0.29,0.71c0.13,0.21,0.31,0.38,0.54,0.51c0.23,0.13,0.51,0.2,0.85,0.2c0.21,0,0.4-0.03,0.58-0.1
			c0.17-0.07,0.33-0.17,0.46-0.29c0.13-0.12,0.24-0.26,0.33-0.43c0.09-0.17,0.16-0.34,0.2-0.55h0.49c-0.06,0.24-0.14,0.47-0.24,0.68
			c-0.1,0.21-0.25,0.4-0.42,0.56s-0.38,0.29-0.63,0.38c-0.25,0.1-0.53,0.14-0.87,0.14c-0.38,0-0.71-0.07-0.98-0.21
			c-0.27-0.14-0.49-0.33-0.67-0.57s-0.3-0.52-0.37-0.83c-0.08-0.32-0.11-0.65-0.11-1.01c0-0.47,0.06-0.87,0.18-1.21
			c0.12-0.33,0.28-0.6,0.49-0.81c0.21-0.21,0.45-0.36,0.73-0.45s0.59-0.14,0.92-0.14c0.25,0,0.49,0.03,0.71,0.1
			c0.22,0.07,0.41,0.17,0.58,0.3c0.17,0.13,0.3,0.3,0.41,0.49c0.11,0.2,0.18,0.42,0.22,0.68L123.69,73.25L123.69,73.25z"/>
		<path class="st0" d="M125.24,76.77v-4.96h0.47v2.57l2.55-2.57h0.53l-1.96,1.98l2.3,2.99h-0.57l-2.07-2.69l-0.78,0.78v1.92
			L125.24,76.77L125.24,76.77z"/>
		<path class="st0" d="M131.42,71.81h3.61v0.4h-1.57v4.56h-0.47v-4.56h-1.57L131.42,71.81L131.42,71.81z"/>
		<path class="st0" d="M135.57,74.3c0-0.36,0.05-0.7,0.15-1.02c0.1-0.32,0.25-0.59,0.44-0.83c0.19-0.24,0.43-0.43,0.72-0.56
			c0.29-0.14,0.61-0.21,0.99-0.21c0.38,0,0.72,0.07,1.02,0.2c0.29,0.14,0.53,0.32,0.73,0.56c0.2,0.24,0.34,0.52,0.44,0.83
			c0.1,0.32,0.15,0.66,0.15,1.02c0,0.36-0.05,0.7-0.15,1.01c-0.1,0.32-0.25,0.59-0.44,0.83c-0.19,0.24-0.44,0.43-0.72,0.56
			c-0.29,0.14-0.63,0.21-1.01,0.21s-0.72-0.07-1.01-0.21c-0.29-0.14-0.53-0.33-0.72-0.56s-0.34-0.51-0.44-0.83
			C135.62,74.98,135.57,74.65,135.57,74.3z M137.89,76.5c0.32,0,0.6-0.06,0.83-0.18c0.23-0.12,0.43-0.28,0.57-0.49
			c0.15-0.2,0.26-0.44,0.33-0.7s0.11-0.55,0.11-0.83c0-0.34-0.04-0.65-0.13-0.93c-0.09-0.28-0.21-0.51-0.37-0.7
			c-0.16-0.2-0.36-0.34-0.59-0.44s-0.49-0.15-0.77-0.15c-0.32,0-0.59,0.06-0.82,0.18c-0.23,0.13-0.43,0.29-0.57,0.49
			c-0.15,0.21-0.26,0.44-0.33,0.71c-0.07,0.26-0.11,0.55-0.11,0.83c0,0.29,0.03,0.57,0.11,0.84c0.07,0.26,0.18,0.5,0.33,0.7
			s0.34,0.36,0.57,0.48C137.28,76.45,137.56,76.5,137.89,76.5z"/>
		<path class="st0" d="M143.19,71.81h0.47v2.96c0,0.61,0.11,1.06,0.34,1.33c0.23,0.27,0.6,0.41,1.11,0.41
			c0.26,0,0.49-0.03,0.68-0.11c0.18-0.07,0.34-0.18,0.45-0.32c0.11-0.14,0.2-0.33,0.25-0.54c0.05-0.22,0.07-0.47,0.07-0.76v-2.96
			h0.47v3.1c0,0.65-0.16,1.14-0.48,1.49c-0.32,0.34-0.8,0.51-1.44,0.51c-0.65,0-1.13-0.17-1.45-0.52c-0.32-0.35-0.48-0.84-0.48-1.48
			L143.19,71.81L143.19,71.81z"/>
		<path class="st0" d="M148.21,76.77v-4.96h1.82c0.32,0,0.59,0.03,0.8,0.11c0.21,0.07,0.37,0.17,0.49,0.3
			c0.12,0.13,0.21,0.28,0.25,0.44c0.05,0.17,0.07,0.34,0.07,0.53c0,0.28-0.06,0.51-0.17,0.68c-0.11,0.18-0.26,0.32-0.44,0.43
			c-0.18,0.1-0.38,0.18-0.61,0.22c-0.23,0.04-0.45,0.06-0.68,0.06h-1.06v2.19L148.21,76.77L148.21,76.77z M149.76,74.18
			c0.22,0,0.42-0.01,0.59-0.04c0.17-0.03,0.32-0.08,0.44-0.16c0.12-0.07,0.22-0.18,0.28-0.31c0.07-0.13,0.1-0.3,0.1-0.51
			c0-0.31-0.1-0.55-0.3-0.71c-0.21-0.16-0.53-0.24-0.98-0.24h-1.21v1.97C148.68,74.18,149.76,74.18,149.76,74.18z"/>
		<path class="st0" d="M152.51,76.77v-4.96h0.47v4.56h2.66v0.4H152.51z"/>
		<path class="st0" d="M156.22,74.3c0-0.36,0.05-0.7,0.15-1.02c0.1-0.32,0.25-0.59,0.44-0.83c0.2-0.24,0.43-0.43,0.72-0.56
			c0.29-0.14,0.61-0.21,0.99-0.21c0.38,0,0.72,0.07,1.02,0.2c0.29,0.13,0.53,0.32,0.73,0.56c0.2,0.24,0.34,0.52,0.44,0.83
			c0.1,0.32,0.15,0.66,0.15,1.02c0,0.36-0.05,0.7-0.15,1.01c-0.1,0.32-0.25,0.59-0.44,0.83c-0.19,0.24-0.44,0.43-0.72,0.56
			c-0.29,0.14-0.63,0.21-1.01,0.21s-0.72-0.07-1.01-0.21c-0.29-0.14-0.53-0.33-0.72-0.56s-0.34-0.51-0.44-0.83
			C156.27,74.98,156.22,74.65,156.22,74.3z M158.54,76.5c0.32,0,0.6-0.06,0.83-0.18c0.23-0.12,0.43-0.28,0.57-0.49
			c0.15-0.2,0.26-0.44,0.33-0.7c0.07-0.26,0.11-0.55,0.11-0.83c0-0.34-0.04-0.65-0.13-0.93c-0.09-0.28-0.21-0.51-0.37-0.7
			c-0.16-0.2-0.36-0.34-0.59-0.44s-0.49-0.15-0.77-0.15c-0.32,0-0.59,0.06-0.82,0.18c-0.23,0.13-0.43,0.29-0.57,0.49
			c-0.15,0.21-0.26,0.44-0.33,0.71s-0.11,0.55-0.11,0.83c0,0.29,0.03,0.57,0.11,0.84s0.18,0.5,0.33,0.7
			c0.15,0.2,0.34,0.36,0.57,0.48C157.93,76.45,158.21,76.5,158.54,76.5z"/>
		<path class="st0" d="M161.39,76.77l1.95-4.96h0.53l1.9,4.96h-0.48l-0.57-1.56h-2.26l-0.59,1.56H161.39z M162.62,74.82h1.94
			l-0.97-2.61L162.62,74.82z"/>
		<path class="st0" d="M166.52,76.77v-4.96h1.69c0.14,0,0.28,0.01,0.41,0.01c0.13,0.01,0.26,0.02,0.39,0.05
			c0.13,0.02,0.25,0.06,0.37,0.11s0.24,0.11,0.36,0.2c0.17,0.12,0.3,0.26,0.41,0.44c0.1,0.17,0.19,0.36,0.25,0.55
			c0.06,0.19,0.1,0.38,0.13,0.58c0.03,0.2,0.04,0.37,0.04,0.54s-0.01,0.33-0.03,0.51c-0.02,0.17-0.05,0.34-0.1,0.5
			c-0.05,0.16-0.11,0.32-0.18,0.47c-0.07,0.15-0.17,0.29-0.29,0.41c-0.11,0.13-0.24,0.23-0.37,0.31s-0.28,0.14-0.43,0.18
			c-0.15,0.05-0.3,0.07-0.47,0.09c-0.16,0.02-0.32,0.02-0.49,0.02L166.52,76.77L166.52,76.77z M166.99,76.37h1.13
			c0.21,0,0.41-0.01,0.6-0.04c0.19-0.03,0.37-0.09,0.57-0.19c0.17-0.08,0.3-0.2,0.41-0.34c0.1-0.14,0.19-0.3,0.25-0.47
			c0.06-0.17,0.1-0.34,0.13-0.53c0.02-0.18,0.04-0.36,0.04-0.53c0-0.18-0.01-0.36-0.03-0.55c-0.02-0.18-0.07-0.36-0.13-0.53
			c-0.06-0.17-0.15-0.32-0.26-0.46c-0.11-0.14-0.25-0.26-0.43-0.35c-0.15-0.08-0.32-0.13-0.52-0.15s-0.41-0.03-0.61-0.03h-1.13
			L166.99,76.37L166.99,76.37z"/>
		<path class="st0" d="M173.5,76.77v-4.96h3.2v0.4h-2.73v1.79h2.48v0.4h-2.48v2.37L173.5,76.77L173.5,76.77z"/>
		<path class="st0" d="M177.62,76.77v-4.96h0.47v4.96H177.62z"/>
		<path class="st0" d="M179.44,76.77v-4.96h0.47v4.56h2.66v0.4H179.44z"/>
		<path class="st0" d="M183.34,76.77v-4.96h3.3v0.4h-2.83v1.79h2.56v0.4h-2.56v1.97h2.9v0.4L183.34,76.77L183.34,76.77z"/>
		<path class="st0" d="M187.81,75.29c0.02,0.22,0.07,0.41,0.15,0.56c0.08,0.16,0.18,0.28,0.31,0.37c0.13,0.1,0.27,0.17,0.44,0.21
			s0.34,0.06,0.53,0.06c0.22,0,0.41-0.03,0.57-0.08c0.16-0.06,0.29-0.13,0.39-0.22c0.1-0.09,0.18-0.2,0.22-0.33
			c0.05-0.13,0.07-0.25,0.07-0.39c0-0.2-0.05-0.35-0.13-0.47c-0.09-0.12-0.2-0.22-0.34-0.29c-0.14-0.07-0.3-0.14-0.48-0.18
			c-0.18-0.05-0.37-0.09-0.56-0.13c-0.19-0.04-0.38-0.1-0.56-0.16c-0.18-0.06-0.34-0.14-0.48-0.24c-0.14-0.1-0.25-0.23-0.34-0.39
			c-0.09-0.16-0.13-0.36-0.13-0.6c0-0.17,0.03-0.33,0.11-0.49c0.07-0.16,0.18-0.3,0.32-0.43c0.14-0.13,0.32-0.22,0.53-0.3
			c0.21-0.07,0.45-0.11,0.73-0.11c0.28,0,0.52,0.04,0.74,0.11c0.21,0.08,0.38,0.18,0.52,0.32s0.24,0.29,0.31,0.47
			c0.07,0.18,0.1,0.37,0.1,0.57h-0.45c0-0.19-0.03-0.35-0.1-0.49c-0.06-0.14-0.16-0.25-0.27-0.34c-0.11-0.09-0.25-0.15-0.39-0.2
			c-0.15-0.04-0.3-0.06-0.45-0.06c-0.24,0-0.44,0.03-0.6,0.1c-0.16,0.07-0.29,0.16-0.39,0.26s-0.16,0.22-0.2,0.35
			c-0.03,0.13-0.05,0.26-0.02,0.38c0.03,0.16,0.09,0.29,0.2,0.38s0.22,0.18,0.37,0.24c0.15,0.06,0.31,0.11,0.49,0.15
			c0.18,0.04,0.36,0.08,0.54,0.13c0.18,0.05,0.36,0.1,0.53,0.16c0.17,0.06,0.33,0.14,0.46,0.24s0.24,0.23,0.32,0.39
			c0.08,0.16,0.12,0.36,0.12,0.6c0,0.46-0.16,0.82-0.48,1.07s-0.76,0.38-1.34,0.38c-0.26,0-0.49-0.03-0.72-0.1
			c-0.22-0.07-0.41-0.17-0.57-0.3s-0.29-0.3-0.37-0.51c-0.09-0.2-0.13-0.44-0.13-0.71L187.81,75.29L187.81,75.29z"/>
	</g>
</g>
<g>
	<g>
		<path class="st0" d="M296.23,92.35h-6c-0.28,0-0.5-0.22-0.5-0.5s0.22-0.5,0.5-0.5h5.5v-5.5c0-0.28,0.22-0.5,0.5-0.5
			s0.5,0.22,0.5,0.5v6C296.73,92.13,296.51,92.35,296.23,92.35z"/>
	</g>
	<g>
		<path class="st0" d="M278.04,92.35h-12.19c-0.28,0-0.5-0.22-0.5-0.5s0.22-0.5,0.5-0.5h12.19c0.28,0,0.5,0.22,0.5,0.5
			S278.31,92.35,278.04,92.35z M253.65,92.35h-12.19c-0.28,0-0.5-0.22-0.5-0.5s0.22-0.5,0.5-0.5h12.19c0.28,0,0.5,0.22,0.5,0.5
			S253.93,92.35,253.65,92.35z M229.26,92.35h-12.19c-0.28,0-0.5-0.22-0.5-0.5s0.22-0.5,0.5-0.5h12.19c0.28,0,0.5,0.22,0.5,0.5
			S229.54,92.35,229.26,92.35z M204.87,92.35h-12.19c-0.28,0-0.5-0.22-0.5-0.5s0.22-0.5,0.5-0.5h12.19c0.28,0,0.5,0.22,0.5,0.5
			S205.15,92.35,204.87,92.35z M180.49,92.35h-12.19c-0.28,0-0.5-0.22-0.5-0.5s0.22-0.5,0.5-0.5h12.19c0.28,0,0.5,0.22,0.5,0.5
			S180.76,92.35,180.49,92.35z M156.1,92.35H143.9c-0.28,0-0.5-0.22-0.5-0.5s0.22-0.5,0.5-0.5h12.19c0.28,0,0.5,0.22,0.5,0.5
			S156.37,92.35,156.1,92.35z M131.71,92.35h-12.19c-0.28,0-0.5-0.22-0.5-0.5s0.22-0.5,0.5-0.5h12.19c0.28,0,0.5,0.22,0.5,0.5
			S131.99,92.35,131.71,92.35z M107.32,92.35H95.13c-0.28,0-0.5-0.22-0.5-0.5s0.22-0.5,0.5-0.5h12.19c0.28,0,0.5,0.22,0.5,0.5
			S107.6,92.35,107.32,92.35z M82.93,92.35H70.74c-0.28,0-0.5-0.22-0.5-0.5s0.22-0.5,0.5-0.5h12.19c0.28,0,0.5,0.22,0.5,0.5
			S83.21,92.35,82.93,92.35z M58.54,92.35H46.35c-0.28,0-0.5-0.22-0.5-0.5s0.22-0.5,0.5-0.5h12.19c0.28,0,0.5,0.22,0.5,0.5
			S58.82,92.35,58.54,92.35z M34.16,92.35H21.96c-0.28,0-0.5-0.22-0.5-0.5s0.22-0.5,0.5-0.5h12.19c0.28,0,0.5,0.22,0.5,0.5
			S34.43,92.35,34.16,92.35z"/>
	</g>
	<g>
		<path class="st0" d="M9.77,92.35h-6c-0.28,0-0.5-0.22-0.5-0.5v-6c0-0.28,0.22-0.5,0.5-0.5s0.5,0.22,0.5,0.5v5.5h5.5
			c0.28,0,0.5,0.22,0.5,0.5S10.04,92.35,9.77,92.35z"/>
	</g>
	<g>
		<path class="st0" d="M3.77,75.41c-0.28,0-0.5-0.22-0.5-0.5V63.98c0-0.28,0.22-0.5,0.5-0.5s0.5,0.22,0.5,0.5v10.94
			C4.27,75.19,4.04,75.41,3.77,75.41z M3.77,53.54c-0.28,0-0.5-0.22-0.5-0.5V42.1c0-0.28,0.22-0.5,0.5-0.5s0.5,0.22,0.5,0.5v10.94
			C4.27,53.32,4.04,53.54,3.77,53.54z M3.77,31.66c-0.28,0-0.5-0.22-0.5-0.5V20.23c0-0.28,0.22-0.5,0.5-0.5s0.5,0.22,0.5,0.5v10.94
			C4.27,31.44,4.04,31.66,3.77,31.66z"/>
	</g>
	<g>
		<path class="st0" d="M3.77,9.79c-0.28,0-0.5-0.22-0.5-0.5v-6c0-0.28,0.22-0.5,0.5-0.5h6c0.28,0,0.5,0.22,0.5,0.5
			s-0.22,0.5-0.5,0.5h-5.5v5.5C4.27,9.57,4.04,9.79,3.77,9.79z"/>
	</g>
	<g>
		<path class="st0" d="M278.04,3.79h-12.19c-0.28,0-0.5-0.22-0.5-0.5s0.22-0.5,0.5-0.5h12.19c0.28,0,0.5,0.22,0.5,0.5
			S278.31,3.79,278.04,3.79z M253.65,3.79h-12.19c-0.28,0-0.5-0.22-0.5-0.5s0.22-0.5,0.5-0.5h12.19c0.28,0,0.5,0.22,0.5,0.5
			S253.93,3.79,253.65,3.79z M229.26,3.79h-12.19c-0.28,0-0.5-0.22-0.5-0.5s0.22-0.5,0.5-0.5h12.19c0.28,0,0.5,0.22,0.5,0.5
			S229.54,3.79,229.26,3.79z M204.87,3.79h-12.19c-0.28,0-0.5-0.22-0.5-0.5s0.22-0.5,0.5-0.5h12.19c0.28,0,0.5,0.22,0.5,0.5
			S205.15,3.79,204.87,3.79z M180.49,3.79h-12.19c-0.28,0-0.5-0.22-0.5-0.5s0.22-0.5,0.5-0.5h12.19c0.28,0,0.5,0.22,0.5,0.5
			S180.76,3.79,180.49,3.79z M156.1,3.79H143.9c-0.28,0-0.5-0.22-0.5-0.5s0.22-0.5,0.5-0.5h12.19c0.28,0,0.5,0.22,0.5,0.5
			S156.37,3.79,156.1,3.79z M131.71,3.79h-12.19c-0.28,0-0.5-0.22-0.5-0.5s0.22-0.5,0.5-0.5h12.19c0.28,0,0.5,0.22,0.5,0.5
			S131.99,3.79,131.71,3.79z M107.32,3.79H95.13c-0.28,0-0.5-0.22-0.5-0.5s0.22-0.5,0.5-0.5h12.19c0.28,0,0.5,0.22,0.5,0.5
			S107.6,3.79,107.32,3.79z M82.93,3.79H70.74c-0.28,0-0.5-0.22-0.5-0.5s0.22-0.5,0.5-0.5h12.19c0.28,0,0.5,0.22,0.5,0.5
			S83.21,3.79,82.93,3.79z M58.54,3.79H46.35c-0.28,0-0.5-0.22-0.5-0.5s0.22-0.5,0.5-0.5h12.19c0.28,0,0.5,0.22,0.5,0.5
			S58.82,3.79,58.54,3.79z M34.16,3.79H21.96c-0.28,0-0.5-0.22-0.5-0.5s0.22-0.5,0.5-0.5h12.19c0.28,0,0.5,0.22,0.5,0.5
			S34.43,3.79,34.16,3.79z"/>
	</g>
	<g>
		<path class="st0" d="M296.23,9.79c-0.28,0-0.5-0.22-0.5-0.5v-5.5h-5.5c-0.28,0-0.5-0.22-0.5-0.5s0.22-0.5,0.5-0.5h6
			c0.28,0,0.5,0.22,0.5,0.5v6C296.73,9.57,296.51,9.79,296.23,9.79z"/>
	</g>
	<g>
		<path class="st0" d="M296.23,75.41c-0.28,0-0.5-0.22-0.5-0.5V63.98c0-0.28,0.22-0.5,0.5-0.5s0.5,0.22,0.5,0.5v10.94
			C296.73,75.19,296.51,75.41,296.23,75.41z M296.23,53.54c-0.28,0-0.5-0.22-0.5-0.5V42.1c0-0.28,0.22-0.5,0.5-0.5s0.5,0.22,0.5,0.5
			v10.94C296.73,53.32,296.51,53.54,296.23,53.54z M296.23,31.67c-0.28,0-0.5-0.22-0.5-0.5V20.23c0-0.28,0.22-0.5,0.5-0.5
			s0.5,0.22,0.5,0.5v10.94C296.73,31.44,296.51,31.67,296.23,31.67z"/>
	</g>
</g>
</svg>
