<svg id="Layer_1" data-name="Layer 1" xmlns="http://www.w3.org/2000/svg" viewBox="0 0 674.03 589.82"><defs><style>.cls-1{fill:#005eb8;fill-rule:evenodd;}</style></defs><path class="cls-1" d="M518.58,181.48H97.27A42.13,42.13,0,0,0,55.15,223.6v337l111.48-99.18a21.06,21.06,0,0,1,26.54-2.61l112.07,74.69,156.3-156.3a21.09,21.09,0,0,1,24.32-4l74.8,82V223.6a42.13,42.13,0,0,0-42.14-42.14ZM97.27,139.35A84.25,84.25,0,0,0,13,223.6v337a84.25,84.25,0,0,0,84.25,84.26H518.58a84.26,84.26,0,0,0,84.24-84.26v-337a84.26,84.26,0,0,0-84.24-84.26ZM265.79,328.93a63.2,63.2,0,1,1-18.51-44.69A63.15,63.15,0,0,1,265.79,328.93Z" transform="translate(-12.99 -55.09)"/><path class="cls-1" d="M181.45,97.22H602.76a42.15,42.15,0,0,1,42.13,42.14v337a42.13,42.13,0,0,1-42.13,42.13v42.14A84.26,84.26,0,0,0,687,476.4v-337a84.25,84.25,0,0,0-84.25-84.26H181.45a84.26,84.26,0,0,0-84.26,84.26h42.14a42.13,42.13,0,0,1,42.12-42.12Z" transform="translate(-12.99 -55.09)"/></svg>