<svg xmlns="http://www.w3.org/2000/svg" viewBox="0 0 543.61535 546.9632"><title>mfcs_logo</title><ellipse cx="341.58015" cy="57.76056" rx="30.10551" ry="29.78015" style="fill:#d49c29"/><rect x="311.7301" y="58.87414" width="40.76505" height="48.23346" style="fill:#d49c29"/><path d="M426.4056,120.68682H183.69916A46.80983,46.80983,0,0,0,137.03962,166.661l80.1505,84.2452a5.91246,5.91246,0,1,1-8.56709,8.15068l-71.60136-75.25921V410.491a46.81472,46.81472,0,0,0,46.67749,46.67754H426.4056A46.81477,46.81477,0,0,0,473.08314,410.491V167.36436A46.81477,46.81477,0,0,0,426.4056,120.68682Z" transform="translate(-31.38465 -27.29266)" style="fill:#e9ac21"/><rect x="177.05006" y="389.26846" width="87.22531" height="157.69474" rx="43.61261" ry="43.61261" style="fill:#e9ac21"/><rect x="440.8685" y="246.44682" width="87.22531" height="181.03769" rx="43.61261" ry="43.61261" transform="translate(116.13084 794.15416) rotate(-90)" style="fill:#e9ac21"/><rect x="80.9154" y="113.80924" width="87.22531" height="227.46884" rx="43.61261" ry="43.61261" transform="translate(342.0957 273.09404) rotate(135)" style="fill:#e9ac21"/><path d="M341.45905,462.33925v68.304a43.74084,43.74084,0,0,0,43.61262,43.61262h.00005a43.74084,43.74084,0,0,0,43.61262-43.61262v-68.304Z" transform="translate(-31.38465 -27.29266)" style="fill:#e9ac21"/><path d="M299.53384,456.73846H426.40558a46.81476,46.81476,0,0,0,46.67753-46.67754L471.85517,293.353C355.47251,293.353,305.05238,367.11707,299.53384,456.73846Z" transform="translate(-31.38465 -27.29266)" style="fill:#efcb7f"/><path d="M329.10569,206.19443c0-28.87284-19.78371-52.27884-44.18811-52.27884s-44.188,23.406-44.188,52.27884c0,.67834.02159,1.35058.04325,2.02265h88.28966C329.08409,207.545,329.10569,206.87277,329.10569,206.19443Z" transform="translate(-31.38465 -27.29266)" style="fill:#fbdb00"/><path d="M392.58714,171.65305a36.33293,36.33293,0,0,0-36.09732,36.564h72.19452A36.33287,36.33287,0,0,0,392.58714,171.65305Z" transform="translate(-31.38465 -27.29266)" style="fill:#fbdb00"/><polygon points="243.575 219.978 347.51 211.576 304.567 266.06 243.575 219.978" style="fill:#9d7e2d"/><ellipse cx="217.65749" cy="38.50704" rx="42.00768" ry="38.50704" style="fill:#e9ac21"/><rect x="175.6498" y="38.50704" width="55.79493" height="68.60055" style="fill:#e9ac21"/></svg>