<svg id="Layer_1" data-name="Layer 1" xmlns="http://www.w3.org/2000/svg" viewBox="0 0 681.73 552.73"><defs><style>.cls-1{fill:#005eb8;}</style></defs><polygon class="cls-1" points="345.93 64.04 345.93 64.04 345.94 64.05 345.93 64.04"/><path class="cls-1" d="M315.6,141.43l-98.46,98.45H58.58A49.44,49.44,0,0,0,9.14,289.33V405.58A49.44,49.44,0,0,0,58.58,455H217.13l98.46,98.45a31.16,31.16,0,0,0,39.47,3.76V137.67A31.14,31.14,0,0,0,315.6,141.43Z" transform="translate(-9.14 -73.63)"/><path class="cls-1" d="M418.82,202.2l-27.21,27.21A147.31,147.31,0,0,1,454.3,350h0a147.28,147.28,0,0,1-62.69,120.58l27.21,27.21A185.3,185.3,0,0,0,492.44,350C492.44,289.71,463.48,236.15,418.82,202.2Z" transform="translate(-9.14 -73.63)"/><path class="cls-1" d="M483.14,137.9l-27.37,27.37C514.71,205.62,553.5,273.33,553.5,350s-38.79,144.38-97.73,184.72l27.37,27.38C548.82,514.46,591.66,437.18,591.66,350S548.83,185.55,483.14,137.9Z" transform="translate(-9.14 -73.63)"/><path class="cls-1" d="M547.41,73.63h0l-27.48,27.48c80,54,132.78,145.34,132.78,248.9S600,544.94,519.93,598.89l27.48,27.48C634.13,565.06,690.86,464,690.86,350S634.12,135,547.41,73.63Z" transform="translate(-9.14 -73.63)"/></svg>