<svg id="Layer_1" data-name="Layer 1" xmlns="http://www.w3.org/2000/svg" viewBox="0 0 569.99 680"><defs><style>.cls-1{fill:#005eb8;}</style></defs><path class="cls-1" d="M346.73,344.86a62.37,62.37,0,0,0-13.76,1.2v87.42c2.59.6,6.78.6,10.57.6,27.52.19,45.47-14.88,45.47-46.81.19-27.74-16.16-42.41-42.28-42.41Z" transform="translate(-70.01 -10)"/><path class="cls-1" d="M253,364.1c0-12.29-8.57-19.63-23.73-19.63a51.59,51.59,0,0,0-12.56,1.2v39.45a46.86,46.86,0,0,0,10.16.79C243,385.9,253,377.77,253,364.1Z" transform="translate(-70.01 -10)"/><path class="cls-1" d="M464.37,31.31C447.79,14.84,436,10,412.61,10H115.49C82.83,10,70,22.75,70,55.21V644.79C70,677.25,82.84,690,115.49,690h479c32.66,0,45.48-12.75,45.48-45.21V236.05c0-23.3-4.87-35-21.43-51.46ZM600.23,638.4c0,8.66-3.42,12.05-12.13,12.05H121.92c-8.71,0-12.13-3.4-12.13-12.05V492.15H600.22ZM186.61,456.29V324.44c9.37-1.58,22.53-2.77,41.08-2.77,18.74,0,32.1,3.57,41.08,10.7,8.57,6.74,14.35,17.85,14.35,30.93s-4.38,24.19-12.35,31.72C260.4,404.74,245,409.1,227.09,409.1a78,78,0,0,1-10.37-.6v47.79Zm115.86-.61V324.44a273.29,273.29,0,0,1,41.08-2.77c25.52,0,42.07,4.57,55,14.27,14,10.32,22.74,26.77,22.74,50.37,0,25.56-9.38,43.21-22.34,54.12-14.15,11.69-35.69,17.25-62,17.25a264.19,264.19,0,0,1-34.5-2ZM520,378v24.58H471.77v53.74H441.25V322.66h82.16v24.78H471.76V378Zm80.19-90.78H109.79V61.61c0-8.66,3.42-12.06,12.13-12.06H424.75c4.34,0,6.06,1.7,6.06,6V172.77c0,32.46,12.83,45.22,45.47,45.22H594.16c4.36,0,6.07,1.7,6.07,6Z" transform="translate(-70.01 -10)"/></svg>