<svg id="Layer_1" data-name="Layer 1" xmlns="http://www.w3.org/2000/svg" viewBox="0 0 668 436.77"><defs><style>.cls-1{fill:#005eb8;}</style></defs><path class="cls-1" d="M664.86,186.85a38,38,0,0,0-38.54-.13l-96.47,55.12V445.7l94.8,61A38.51,38.51,0,0,0,684,474.22V220.13h0A38.14,38.14,0,0,0,664.86,186.85Z" transform="translate(-16 -131.62)"/><path class="cls-1" d="M414.23,131.62H105.92A90,90,0,0,0,16,221.54V478.46a90,90,0,0,0,89.92,89.92H414.23a90,90,0,0,0,89.92-89.92V221.54A90,90,0,0,0,414.23,131.62Zm-69.49,251h0L213.32,464.85a38.12,38.12,0,0,1-39,1,38.19,38.19,0,0,1-19.91-33.79V267.91a38.57,38.57,0,0,1,59-32.76l131.42,82.22a38.45,38.45,0,0,1,0,65.26Z" transform="translate(-16 -131.62)"/><path class="cls-1" d="M331.12,339.08,199.71,257a11.89,11.89,0,0,0-6.69-2.05,13.37,13.37,0,0,0-6.29,1.66,12.74,12.74,0,0,0-6.68,11.31V432.09A12.84,12.84,0,0,0,199.7,443l131.41-82.09a12.85,12.85,0,0,0,6-10.92h0A12.86,12.86,0,0,0,331.12,339.08Z" transform="translate(-16 -131.62)"/></svg>