<?xml version="1.0" encoding="utf-8"?>
<!-- Generator: Adobe Illustrator 22.0.1, SVG Export Plug-In . SVG Version: 6.00 Build 0)  -->
<svg version="1.1" id="Layer_1" xmlns="http://www.w3.org/2000/svg" xmlns:xlink="http://www.w3.org/1999/xlink" x="0px" y="0px"
	 viewBox="0 0 32 32" style="enable-background:new 0 0 32 32;" xml:space="preserve">
<style type="text/css">
	.st0{fill:#FFFFFF;}
</style>
<path class="st0" d="M30,5H16V4c0-1.1-0.9-2-2-2H2C0.9,2,0,2.9,0,4v1v1v22c0,1.1,0.9,2,2,2h28c1.1,0,2-0.9,2-2V7C32,5.9,31.1,5,30,5
	z M31,27c0,1.1-0.9,2-2,2H3c-1.1,0-2-0.9-2-2V10h30V27z M31,9H1V6V5c0-1.1,0.9-2,2-2h10c1.1,0,2,0.9,2,2v1h1h13c1.1,0,2,0.9,2,2V9z"
	/>
</svg>
