<?xml version="1.0" encoding="utf-8"?>
<!-- Generator: Adobe Illustrator 22.0.1, SVG Export Plug-In . SVG Version: 6.00 Build 0)  -->
<svg version="1.1" id="Layer_1" xmlns="http://www.w3.org/2000/svg" xmlns:xlink="http://www.w3.org/1999/xlink" x="0px" y="0px"
	 viewBox="0 0 32 32" style="enable-background:new 0 0 32 32;" xml:space="preserve">
<style type="text/css">
	.st0{fill:#FFFFFF;}
</style>
<g>
	<path class="st0" d="M31.8,21h-17L12,10h-0.2H11H0.2C0.1,10,0,10.1,0,10.2v0.5C0,10.9,0.1,11,0.2,11h11L14,22h0.2H15h16.8
		c0.1,0,0.2-0.1,0.2-0.2v-0.5C32,21.1,31.9,21,31.8,21z"/>
	<path class="st0" d="M31.8,10H14.2c-0.1,0-0.2,0.1-0.2,0.2v0.5c0,0.1,0.1,0.2,0.2,0.2h17.5c0.1,0,0.2-0.1,0.2-0.2v-0.5
		C32,10.1,31.9,10,31.8,10z"/>
</g>
</svg>
