<?xml version="1.0" encoding="utf-8"?>
<!-- Generator: Adobe Illustrator 24.0.3, SVG Export Plug-In . SVG Version: 6.00 Build 0)  -->
<svg version="1.1" id="Layer_1" xmlns="http://www.w3.org/2000/svg" xmlns:xlink="http://www.w3.org/1999/xlink" x="0px" y="0px"
	 viewBox="0 0 300 116.09" style="enable-background:new 0 0 300 116.09;" xml:space="preserve">
<style type="text/css">
	.st0{fill:#CCCCCC;}
	.st1{fill:none;stroke:#CCCCCC;stroke-miterlimit:10;}
	.st2{opacity:0.52;}
	.st3{fill:none;}
	.st4{fill:#FFFFFF;}
</style>
<g>
	<path class="st0" d="M296.09,3.97v109.08H3.5V3.97H296.09 M297.15,3.25H2.45v110.51h294.7V3.25L297.15,3.25z"/>
</g>
<g>
	<line class="st1" x1="2.45" y1="27.56" x2="296.09" y2="27.56"/>
</g>
<g class="st2">
	<polygon class="st3" points="294.03,111.33 294.03,107.41 288.28,111.33 	"/>
	<polygon class="st3" points="284.53,111.33 294.03,104.86 294.03,104.02 283.3,111.33 	"/>
	<polygon class="st3" points="279.56,111.33 294.03,101.47 294.03,100.63 278.33,111.33 	"/>
	<polygon class="st0" points="283.3,111.33 294.03,104.02 294.03,101.47 279.56,111.33 	"/>
	<polygon class="st0" points="288.28,111.33 294.03,107.41 294.03,104.86 284.53,111.33 	"/>
</g>
<g>
	<rect x="4.03" y="4.4" class="st4" width="20.96" height="22.12"/>
	<path class="st0" d="M24.45,4.93V26H4.55V4.93H24.45 M25.5,3.88h-22v23.18h22V3.88L25.5,3.88z"/>
</g>
<path class="st0" d="M18.12,14.96c0.49,0.39,0.87,0.86,1.13,1.44c0.25,0.58,0.35,1.2,0.27,1.85C19.43,19.2,19,20,18.26,20.64
	c-0.75,0.64-1.62,0.96-2.61,0.96H9.9c-0.13,0-0.23-0.04-0.32-0.13c-0.08-0.08-0.13-0.19-0.13-0.32v-1.32c0-0.13,0.04-0.23,0.13-0.32
	c0.08-0.08,0.19-0.13,0.32-0.13h0.87v-7.91H9.9c-0.13,0-0.23-0.04-0.32-0.13s-0.13-0.19-0.13-0.32V9.73c0-0.13,0.04-0.23,0.13-0.32
	S9.77,9.29,9.9,9.29h5.46c1.04,0,1.92,0.39,2.61,1.16c0.69,0.77,0.99,1.67,0.88,2.72C18.8,13.83,18.55,14.43,18.12,14.96z
	 M12.97,11.5v2.64h2.39c0.37,0,0.67-0.13,0.94-0.39c0.25-0.25,0.39-0.57,0.39-0.94s-0.13-0.67-0.39-0.94
	c-0.25-0.25-0.57-0.39-0.94-0.39h-2.39V11.5z M15.37,19.41c0.44,0,0.81-0.15,1.09-0.45c0.28-0.31,0.44-0.66,0.44-1.08
	c0-0.42-0.15-0.78-0.44-1.08c-0.29-0.31-0.66-0.45-1.09-0.45h-2.4v3.07C12.97,19.41,15.37,19.41,15.37,19.41z"/>
<g>
	<rect x="26.02" y="4.4" class="st4" width="20.96" height="22.12"/>
	<path class="st0" d="M46.45,4.93V26h-19.9V4.93H46.45 M47.51,3.88H25.5v23.18h22.01L47.51,3.88L47.51,3.88z"/>
</g>
<path class="st0" d="M40.9,9.74v0.88c0,0.13-0.04,0.23-0.13,0.32s-0.19,0.13-0.32,0.13h-1.73l-2.2,8.79h1.29
	c0.13,0,0.23,0.04,0.32,0.13c0.08,0.08,0.13,0.19,0.13,0.32v0.87c0,0.13-0.04,0.23-0.13,0.32c-0.08,0.08-0.19,0.13-0.32,0.13h-5.27
	c-0.13,0-0.23-0.04-0.32-0.13c-0.08-0.08-0.13-0.19-0.13-0.32v-0.87c0-0.13,0.04-0.23,0.13-0.32c0.08-0.08,0.19-0.13,0.32-0.13h1.73
	l2.2-8.79h-1.29c-0.13,0-0.23-0.04-0.32-0.13c-0.08-0.08-0.13-0.19-0.13-0.32V9.74c0-0.13,0.04-0.23,0.13-0.32
	c0.08-0.08,0.19-0.13,0.32-0.13h5.27c0.13,0,0.23,0.04,0.32,0.13C40.85,9.51,40.9,9.61,40.9,9.74z"/>
<g>
	<rect x="48.03" y="4.4" class="st4" width="20.96" height="22.12"/>
	<path class="st0" d="M68.46,4.93V26h-19.9V4.93H68.46 M69.51,3.88H47.51v23.18h22.01V3.88L69.51,3.88z"/>
</g>
<g>
	<rect x="70.04" y="4.4" class="st4" width="20.96" height="22.12"/>
	<path class="st0" d="M90.46,4.93V26H70.57V4.93H90.46 M91.51,3.88h-22v23.18h22.01V3.88H91.51z"/>
</g>
<g>
	<rect x="92.04" y="4.4" class="st4" width="20.96" height="22.12"/>
	<path class="st0" d="M112.47,4.93V26h-19.9V4.93H112.47 M113.52,3.88H91.51v23.18h22.01V3.88L113.52,3.88z"/>
</g>
<g>
	<rect x="114.04" y="4.4" class="st4" width="20.96" height="22.12"/>
	<path class="st0" d="M134.46,4.93V26h-19.9V4.93H134.46 M135.52,3.88h-22.01v23.18h22.01V3.88L135.52,3.88z"/>
</g>
<g>
	<rect x="135.79" y="4.4" class="st4" width="20.96" height="22.12"/>
	<path class="st0" d="M156.22,4.93V26h-19.9V4.93H156.22 M157.27,3.88h-22.01v23.18h22.01V3.88L157.27,3.88z"/>
</g>
<g>
	<path class="st4" d="M53.59,21.1l0.03-0.49h9.8l-0.03,0.49H53.59z M58.5,18.02c-0.93,0-1.69-0.32-2.35-0.98
		c-0.66-0.66-0.98-1.43-0.98-2.35v-4.38h-1.16V9.77l3.19,0.04v0.54l-0.63-0.04h-0.53v4.38c0,0.67,0.24,1.25,0.72,1.74
		c0.47,0.47,1.06,0.72,1.74,0.72c0.67,0,1.25-0.24,1.74-0.72c0.47-0.47,0.72-1.06,0.72-1.74v-4.38H59.8V9.77l3.19,0.04v0.54
		l-0.63-0.04h-0.53v4.38c0,0.93-0.32,1.69-0.98,2.35C60.2,17.69,59.43,18.02,58.5,18.02z"/>
	<path class="st0" d="M63.14,9.29h-3.47c-0.12,0-0.2,0.03-0.27,0.11s-0.11,0.17-0.11,0.28v0.77c0,0.12,0.03,0.2,0.11,0.27
		c0.07,0.07,0.17,0.11,0.27,0.11h0.77v3.85c0,0.53-0.19,0.99-0.57,1.36c-0.38,0.38-0.83,0.57-1.36,0.57c-0.53,0-0.99-0.19-1.36-0.57
		c-0.38-0.38-0.57-0.83-0.57-1.36v-3.85h0.77c0.12,0,0.2-0.03,0.27-0.11c0.07-0.07,0.11-0.17,0.11-0.27V9.67
		c0-0.12-0.03-0.2-0.11-0.27c-0.07-0.07-0.17-0.11-0.27-0.11h-3.47c-0.12,0-0.2,0.03-0.27,0.11c-0.07,0.07-0.11,0.17-0.11,0.27v0.77
		c0,0.12,0.03,0.2,0.11,0.27c0.07,0.07,0.17,0.11,0.27,0.11h0.77v3.85c0,1.06,0.38,1.97,1.14,2.73c0.76,0.76,1.66,1.14,2.73,1.14
		s1.97-0.38,2.73-1.14c0.76-0.76,1.14-1.66,1.14-2.73v-3.85h0.77c0.12,0,0.2-0.03,0.27-0.11c0.07-0.07,0.11-0.17,0.11-0.27V9.67
		c0-0.12-0.03-0.2-0.11-0.27C63.34,9.32,63.25,9.29,63.14,9.29L63.14,9.29z M63.52,20.08H53.49c-0.12,0-0.2,0.03-0.27,0.11
		c-0.07,0.07-0.11,0.17-0.11,0.27v0.77c0,0.12,0.03,0.2,0.11,0.27c0.07,0.07,0.17,0.11,0.27,0.11h10.03c0.12,0,0.2-0.03,0.27-0.11
		c0.07-0.07,0.11-0.17,0.11-0.27v-0.77c0-0.12-0.03-0.2-0.11-0.27C63.72,20.13,63.63,20.08,63.52,20.08L63.52,20.08z"/>
</g>
<path class="st0" d="M151.54,10.77v8.79h0.87c0.13,0,0.23,0.04,0.32,0.13c0.08,0.08,0.13,0.19,0.13,0.32v0.87
	c0,0.13-0.04,0.23-0.13,0.32c-0.08,0.08-0.19,0.13-0.32,0.13h-4.4c-0.13,0-0.23-0.04-0.32-0.13c-0.08-0.08-0.13-0.19-0.13-0.32V20
	c0-0.13,0.04-0.23,0.13-0.32c0.08-0.08,0.19-0.13,0.32-0.13h0.87v-3.52h-5.27v3.52h0.88c0.13,0,0.23,0.04,0.32,0.13
	c0.08,0.08,0.13,0.19,0.13,0.32v0.87c0,0.13-0.04,0.23-0.13,0.32c-0.08,0.08-0.19,0.13-0.32,0.13h-4.4c-0.13,0-0.23-0.04-0.32-0.13
	c-0.08-0.08-0.13-0.19-0.13-0.32V20c0-0.13,0.04-0.23,0.13-0.32c0.08-0.08,0.19-0.13,0.32-0.13h0.87v-8.79h-0.87
	c-0.13,0-0.23-0.04-0.32-0.13c-0.08-0.08-0.13-0.19-0.13-0.32V9.45c0-0.13,0.04-0.23,0.13-0.32c0.08-0.08,0.19-0.13,0.32-0.13h4.4
	c0.13,0,0.23,0.04,0.32,0.13c0.08,0.08,0.13,0.19,0.13,0.32v0.88c0,0.13-0.04,0.23-0.13,0.32c-0.08,0.08-0.19,0.13-0.32,0.13h-0.88
	v3.52h5.27v-3.52h-0.87c-0.13,0-0.23-0.04-0.32-0.13s-0.13-0.19-0.13-0.32V9.45c0-0.13,0.04-0.23,0.13-0.32s0.19-0.13,0.32-0.13h4.4
	c0.13,0,0.23,0.04,0.32,0.13s0.13,0.19,0.13,0.32v0.88c0,0.13-0.04,0.23-0.13,0.32s-0.19,0.13-0.32,0.13h-0.87V10.77z"/>
<path class="st0" d="M74.71,10.77c-0.09,0-0.18-0.03-0.24-0.11c-0.07-0.07-0.11-0.16-0.11-0.24V9.38c0-0.09,0.03-0.18,0.11-0.24
	c0.07-0.07,0.16-0.11,0.24-0.11h7.2c0.09,0,0.18,0.04,0.24,0.11c0.07,0.07,0.11,0.16,0.11,0.24v1.04c0,0.09-0.04,0.18-0.11,0.24
	c-0.07,0.07-0.16,0.11-0.24,0.11H74.71z M86.23,12.53c0.13,0,0.23,0.04,0.32,0.13c0.08,0.08,0.13,0.19,0.13,0.32v0.88
	c0,0.13-0.04,0.23-0.13,0.32c-0.08,0.08-0.19,0.13-0.32,0.13H74.8c-0.13,0-0.23-0.04-0.32-0.13c-0.08-0.08-0.13-0.19-0.13-0.32
	v-0.88c0-0.13,0.04-0.23,0.13-0.32c0.08-0.08,0.19-0.13,0.32-0.13H86.23z M74.71,17.8c-0.09,0-0.18-0.03-0.24-0.11
	c-0.07-0.07-0.11-0.16-0.11-0.24V16.4c0-0.09,0.03-0.18,0.11-0.25c0.07-0.07,0.16-0.11,0.24-0.11h7.2c0.09,0,0.18,0.03,0.24,0.11
	c0.07,0.07,0.11,0.16,0.11,0.25v1.04c0,0.09-0.04,0.18-0.11,0.24c-0.07,0.07-0.16,0.11-0.24,0.11h-7.2V17.8z M86.23,19.56
	c0.13,0,0.23,0.04,0.32,0.13c0.08,0.08,0.13,0.19,0.13,0.32v0.87c0,0.13-0.04,0.23-0.13,0.32c-0.08,0.08-0.19,0.13-0.32,0.13H74.8
	c-0.13,0-0.23-0.04-0.32-0.13c-0.08-0.08-0.13-0.19-0.13-0.32V20c0-0.13,0.04-0.23,0.13-0.32c0.08-0.08,0.19-0.13,0.32-0.13H86.23z"
	/>
<path class="st0" d="M108.22,12.53c0.13,0,0.23,0.04,0.32,0.13c0.08,0.08,0.13,0.19,0.13,0.32v0.88c0,0.13-0.04,0.23-0.13,0.32
	c-0.08,0.08-0.19,0.13-0.32,0.13H96.79c-0.13,0-0.23-0.04-0.32-0.13c-0.08-0.08-0.13-0.19-0.13-0.32v-0.88
	c0-0.13,0.04-0.23,0.13-0.32c0.08-0.08,0.19-0.13,0.32-0.13H108.22z M108.22,19.56c0.13,0,0.23,0.04,0.32,0.13
	c0.08,0.08,0.13,0.19,0.13,0.32v0.87c0,0.13-0.04,0.23-0.13,0.32c-0.08,0.08-0.19,0.13-0.32,0.13H96.79c-0.13,0-0.23-0.04-0.32-0.13
	c-0.08-0.08-0.13-0.19-0.13-0.32V20c0-0.13,0.04-0.23,0.13-0.32c0.08-0.08,0.19-0.13,0.32-0.13H108.22z M99.33,10.77
	c-0.09,0-0.17-0.03-0.23-0.09C99.04,10.61,99,10.54,99,10.44V9.35c0-0.09,0.03-0.17,0.09-0.23c0.06-0.06,0.14-0.09,0.23-0.09h6.38
	c0.09,0,0.17,0.03,0.23,0.09s0.09,0.15,0.09,0.23v1.09c0,0.09-0.03,0.17-0.09,0.23s-0.14,0.09-0.23,0.09
	C105.71,10.77,99.33,10.77,99.33,10.77z M105.7,17.8h-6.38c-0.09,0-0.17-0.03-0.23-0.09s-0.09-0.14-0.09-0.23v-1.09
	c0-0.09,0.03-0.17,0.09-0.23s0.14-0.09,0.23-0.09h6.38c0.09,0,0.17,0.03,0.23,0.09s0.09,0.14,0.09,0.23v1.09
	c0,0.09-0.03,0.17-0.09,0.23C105.87,17.77,105.79,17.8,105.7,17.8z"/>
<path class="st0" d="M118.8,14.28c-0.13,0-0.23-0.04-0.32-0.13c-0.08-0.08-0.13-0.19-0.13-0.32v-0.88c0-0.13,0.04-0.23,0.13-0.32
	c0.08-0.08,0.19-0.13,0.32-0.13h11.43c0.13,0,0.23,0.04,0.32,0.13c0.08,0.08,0.13,0.19,0.13,0.32v0.88c0,0.13-0.04,0.23-0.13,0.32
	c-0.08,0.08-0.19,0.13-0.32,0.13H118.8z M130.23,19.56c0.13,0,0.23,0.04,0.32,0.13c0.08,0.08,0.13,0.19,0.13,0.32v0.87
	c0,0.13-0.04,0.23-0.13,0.32c-0.08,0.08-0.19,0.13-0.32,0.13H118.8c-0.13,0-0.23-0.04-0.32-0.13c-0.08-0.08-0.13-0.19-0.13-0.32V20
	c0-0.13,0.04-0.23,0.13-0.32c0.08-0.08,0.19-0.13,0.32-0.13H130.23z M130.32,9.01c0.09,0,0.18,0.04,0.25,0.11
	c0.07,0.07,0.11,0.16,0.11,0.24v1.04c0,0.09-0.04,0.18-0.11,0.24c-0.07,0.07-0.16,0.11-0.25,0.11h-7.2c-0.09,0-0.18-0.03-0.24-0.11
	c-0.07-0.07-0.11-0.16-0.11-0.24V9.36c0-0.09,0.03-0.18,0.11-0.24c0.07-0.07,0.16-0.11,0.24-0.11
	C123.12,9.01,130.32,9.01,130.32,9.01z M130.32,16.04c0.09,0,0.18,0.03,0.25,0.11c0.07,0.07,0.11,0.16,0.11,0.25v1.04
	c0,0.09-0.04,0.18-0.11,0.24c-0.07,0.07-0.16,0.11-0.25,0.11h-7.2c-0.09,0-0.18-0.03-0.24-0.11c-0.07-0.07-0.11-0.16-0.11-0.24V16.4
	c0-0.09,0.03-0.18,0.11-0.25c0.07-0.07,0.16-0.11,0.24-0.11H130.32z"/>
<rect x="157.27" y="3.88" class="st0" width="139.88" height="23.18"/>
</svg>
